<?xml version="1.0" standalone="no"?>
<!DOCTYPE svg PUBLIC "-//W3C//DTD SVG 20010904//EN"
 "http://www.w3.org/TR/2001/REC-SVG-20010904/DTD/svg10.dtd">
<svg version="1.0" xmlns="http://www.w3.org/2000/svg"
 width="1280.000000pt" height="853.000000pt" viewBox="0 0 1280.000000 853.000000"
 preserveAspectRatio="xMidYMid meet">
<metadata>
Created by potrace 1.16, written by Peter Selinger 2001-2019
</metadata>
<g transform="translate(0.000000,853.000000) scale(0.100000,-0.100000)"
fill="#000000" stroke="none">
<path d="M2790 7311 c-51 -17 -87 -41 -131 -88 -85 -90 -105 -194 -75 -378 8
-44 11 -84 9 -88 -3 -5 0 -19 6 -30 10 -21 411 -2138 612 -3237 165 -899 337
-1827 364 -1960 30 -148 68 -266 99 -313 l23 -34 -166 -7 c-91 -3 -256 -10
-366 -15 -110 -6 -317 -15 -460 -21 -553 -23 -901 -52 -928 -79 -11 -11 32
-17 178 -26 55 -3 120 -8 145 -10 25 -2 164 -9 310 -15 146 -6 369 -15 495
-20 493 -21 963 -40 1260 -50 296 -11 316 -11 450 9 153 23 340 46 450 55 672
54 854 76 925 109 14 6 34 14 45 18 18 6 17 7 -10 19 -59 24 -131 40 -187 40
-32 0 -58 2 -58 4 0 3 14 26 31 51 88 130 89 234 10 625 -29 140 -57 272 -62
294 -6 21 -15 62 -19 90 -9 51 -43 217 -102 496 -16 80 -33 163 -38 185 -4 22
-21 108 -38 190 -44 209 -141 680 -207 1000 -30 148 -58 277 -60 286 -3 10
-10 41 -15 71 -5 29 -30 152 -55 273 -65 313 -78 375 -124 600 -22 110 -54
265 -71 345 -17 80 -35 168 -40 195 -5 28 -25 127 -45 220 -34 163 -56 269
-76 365 -34 167 -73 277 -127 355 -45 64 -103 125 -118 125 -7 0 -14 4 -16 10
-1 5 -30 19 -63 31 -60 21 -128 35 -715 149 -173 33 -430 83 -570 111 -253 49
-419 67 -470 50z m294 -102 c72 -11 141 -27 152 -34 14 -9 29 -39 43 -83 22
-73 66 -126 114 -137 65 -15 855 -155 874 -155 38 0 54 36 47 107 -7 62 -6 63
18 63 49 0 214 -41 264 -65 90 -44 159 -150 194 -298 11 -45 67 -311 124 -592
97 -470 488 -2370 776 -3765 142 -692 148 -728 132 -802 -16 -68 -60 -124
-110 -138 -20 -5 -381 -33 -800 -61 -870 -59 -836 -59 -920 16 -56 50 -104
134 -126 220 -14 58 -47 227 -336 1750 -357 1882 -459 2417 -586 3080 -101
528 -117 624 -118 717 -1 120 10 148 75 180 42 22 27 22 183 -3z m-357 -121
c0 -119 5 -152 77 -528 25 -129 118 -620 206 -1090 206 -1095 344 -1827 426
-2255 36 -187 121 -635 190 -995 69 -360 134 -690 145 -733 25 -97 59 -175
105 -239 19 -28 33 -52 30 -55 -3 -3 -19 0 -36 7 -41 17 -119 104 -157 176
-35 66 -88 237 -79 259 3 8 -1 27 -9 42 -16 34 -408 2100 -409 2160 -1 22 -4
36 -8 30 -5 -7 -8 -2 -8 11 0 13 -25 154 -55 312 -30 158 -55 291 -55 295 0 3
6 3 13 -1 6 -4 5 1 -4 12 -25 28 -140 645 -133 710 7 70 -128 778 -154 808
-14 16 -36 115 -87 390 -66 356 -68 369 -50 382 18 13 18 14 -2 14 -15 0 -22
8 -27 31 -10 51 -7 211 5 253 11 40 56 116 68 116 4 0 7 -51 8 -112z m88
-1099 c9 -13 145 -736 145 -766 0 -13 -4 -23 -10 -23 -5 0 -10 9 -10 19 0 26
-139 761 -146 772 -3 5 -1 9 5 9 5 0 13 -5 16 -11z"/>
<path d="M3889 3439 c-9 -17 -6 -49 12 -146 20 -110 26 -126 46 -136 13 -5 26
-7 29 -4 4 4 -1 44 -10 89 -20 105 -21 148 -1 148 21 0 33 -29 51 -122 8 -46
17 -91 20 -100 6 -20 54 -25 54 -6 0 6 -12 74 -27 150 -26 129 -29 138 -50
138 -17 0 -23 -6 -23 -21 0 -21 -1 -20 -21 5 -25 32 -64 34 -80 5z"/>
<path d="M4116 3434 c-49 -48 -22 -199 46 -260 39 -36 64 -39 94 -9 25 25 26
31 22 94 -6 73 -26 127 -65 166 -29 29 -74 33 -97 9z"/>
<path d="M4275 3418 c4 -13 29 -55 56 -95 27 -39 49 -74 49 -77 0 -3 -8 -6
-18 -6 -32 0 -51 -22 -45 -53 5 -25 9 -28 32 -21 34 10 59 10 98 0 l32 -7 -9
33 c-6 18 -32 65 -60 105 -27 39 -50 74 -50 77 0 3 14 6 31 6 27 0 30 3 27 28
-3 26 -5 27 -76 30 -73 3 -74 3 -67 -20z"/>
<path d="M4490 3425 c-9 -10 -10 -33 -6 -73 4 -31 9 -85 12 -119 5 -44 12 -67
26 -80 19 -17 20 -17 29 0 9 15 12 16 34 1 13 -8 36 -14 52 -12 25 3 28 8 31
42 2 21 -2 52 -9 68 -13 33 -58 68 -86 68 -24 0 -43 19 -43 41 0 28 29 31 51
5 25 -28 59 -25 52 5 -14 53 -113 90 -143 54z"/>
<path d="M4687 3423 c-12 -12 -7 -79 13 -178 11 -53 20 -99 20 -101 0 -2 11
-4 25 -4 30 0 30 -5 6 109 -23 110 -16 148 19 106 10 -12 49 -176 50 -207 0
-5 11 -8 25 -8 29 0 29 3 10 90 -19 86 -19 130 0 130 21 0 30 -23 50 -127 14
-76 21 -92 38 -97 12 -3 23 -3 25 -1 3 3 -8 68 -23 145 -26 133 -29 140 -51
140 -13 0 -24 -5 -24 -12 0 -6 -7 -4 -18 5 -25 23 -48 21 -65 -3 l-14 -20 -18
20 c-18 19 -55 27 -68 13z"/>
<path d="M4980 3399 c-9 -15 -7 -39 4 -96 9 -41 16 -90 16 -108 0 -19 8 -39
19 -49 18 -17 20 -17 29 1 10 17 11 17 29 0 11 -9 32 -17 47 -17 35 0 49 34
35 85 -14 49 -48 82 -93 90 -31 6 -36 11 -36 36 0 34 19 38 45 9 16 -18 55
-28 55 -15 0 17 -33 66 -49 75 -34 18 -89 12 -101 -11z"/>
</g>
</svg>
