<svg xmlns="http://www.w3.org/2000/svg" width="92.104" height="88.968" viewBox="0 0 92.104 88.968">
  <g id="whatsapp_icon" data-name="whatsapp icon" transform="translate(-131.32 -397.779)">
    <g id="Group_703" data-name="Group 703" transform="translate(131.32 397.779)">
      <path id="Path_6685" data-name="Path 6685" d="M177.372,486.747c-25.392,0-46.052-19.956-46.052-44.485s20.659-44.483,46.052-44.483,46.052,19.955,46.052,44.483S202.764,486.747,177.372,486.747Z" transform="translate(-131.32 -397.779)" fill="#55e069"/>
    </g>
    <g id="Group_706" data-name="Group 706" transform="translate(155.516 415.443)">
      <g id="Group_704" data-name="Group 704">
        <path id="Path_6686" data-name="Path 6686" d="M167.854,407.3a24.427,24.427,0,0,0-20.529,37.671l-3.711,8.175a2.133,2.133,0,0,0,1.942,3.016,2.168,2.168,0,0,0,.565-.076l10.224-2.805A24.431,24.431,0,1,0,167.854,407.3Zm0,44.6a20.147,20.147,0,0,1-10.153-2.744,2.131,2.131,0,0,0-1.076-.292,2.153,2.153,0,0,0-.565.076l-6.679,1.834,2.326-5.127a2.132,2.132,0,0,0-.212-2.129,20.161,20.161,0,1,1,16.36,8.383Z" transform="translate(-143.423 -407.305)" fill="#fff" fill-rule="evenodd"/>
      </g>
      <g id="Group_705" data-name="Group 705" transform="translate(12.558 13.275)">
        <path id="Path_6687" data-name="Path 6687" d="M173.159,431.074c-1.023-.612-2.354-1.3-3.56-.8-.925.378-1.515,1.825-2.114,2.565a.886.886,0,0,1-1.146.249,16.121,16.121,0,0,1-8.046-6.893.986.986,0,0,1,.125-1.348,5.464,5.464,0,0,0,1.462-2.374,5.2,5.2,0,0,0-.654-2.81c-.485-1.044-1.027-2.534-2.074-3.125a2.842,2.842,0,0,0-3.085.46,6.265,6.265,0,0,0-2.172,4.962,7.01,7.01,0,0,0,.2,1.575,13.018,13.018,0,0,0,1.511,3.483,27.261,27.261,0,0,0,1.578,2.4,24.341,24.341,0,0,0,6.841,6.352,20.68,20.68,0,0,0,4.266,2.028c1.672.553,3.161,1.127,4.967.784a6.013,6.013,0,0,0,4.5-3.349,2.918,2.918,0,0,0,.209-1.709C175.7,432.343,174.111,431.643,173.159,431.074Z" transform="translate(-151.893 -416.258)" fill="#fff" fill-rule="evenodd"/>
      </g>
    </g>
  </g>
</svg>
